<svg width="25" height="26" viewBox="0 0 25 26" fill="none" xmlns="http://www.w3.org/2000/svg">
<path d="M12.5415 22.9285H21.8854C22.4585 22.9285 22.9236 22.4633 22.9236 21.8903V3.20254C22.9236 2.62944 22.4584 2.16436 21.8854 2.16436H12.5415C11.9674 2.16436 11.5033 1.70029 11.5033 1.12617C11.5033 0.552051 11.9674 0.0878906 12.5415 0.0878906H21.8854C23.6026 0.0878906 25 1.48535 25 3.20254V21.8902C25 23.6074 23.6026 25.0048 21.8854 25.0048H12.5415C11.9674 25.0048 11.5033 24.5408 11.5033 23.9667C11.5033 23.3925 11.9674 22.9285 12.5415 22.9285Z" fill="#7AB68B"/>
<path d="M0.309376 11.807L6.62168 5.5777C7.02866 5.17487 7.68687 5.18009 8.0897 5.5881C8.49253 5.99611 8.48838 6.65329 8.0793 7.05612L3.56831 11.5079H15.6562C16.2303 11.5079 16.6943 11.972 16.6943 12.5461C16.6943 13.1202 16.2303 13.5843 15.6562 13.5843H3.56831L8.0793 18.0362C8.48833 18.439 8.49146 19.0962 8.0897 19.5042C7.88623 19.7097 7.61836 19.8135 7.35049 19.8135C7.08677 19.8135 6.8231 19.7139 6.62168 19.5145L0.309376 13.2853C0.11211 13.0901 0 12.8243 0 12.5461C0 12.2679 0.111084 12.0032 0.309376 11.807Z" fill="#7AB68B"/>
</svg>
