<svg width="263" height="210" viewBox="0 0 263 210" fill="none" xmlns="http://www.w3.org/2000/svg">
<path fill-rule="evenodd" clip-rule="evenodd" d="M137.003 0.22181C169.948 -0.691665 206.086 0.787725 230.788 12.8848C254.799 24.6431 259.925 44.053 262.614 61.7336C264.845 76.4091 257.225 90.7024 244.593 103.665C233.695 114.848 212.073 120.294 196.467 129.612C175.275 142.264 168.024 166.194 137.003 167.902C106.765 169.567 87.7103 149.597 68.2725 136.67C53.1095 126.587 48.4965 113.889 38.0664 102.109C25.2124 87.5915 -2.11665 75.8273 0.130584 59.7085C2.50705 42.6628 25.5097 28.4626 49.8061 17.903C74.7619 7.05686 105.311 1.10056 137.003 0.22181Z" fill="#F2F2F2"/>
<path opacity="0.2" d="M79.9449 126.416C79.7141 126.185 79.8295 126.07 79.9449 126.416V126.416Z" fill="#263238"/>
<path opacity="0.2" d="M187.979 116.144C186.825 123.992 181.054 130.34 173.436 132.88L170.551 133.803C160.278 148.346 142.157 154.579 126.806 145.576L122.305 142.921L109.724 127.917H109.608C105.569 128.725 101.067 128.147 98.1815 125.262C97.7198 127.686 94.488 129.186 92.295 127.917C90.102 126.647 89.8712 123.069 91.8333 121.568C89.2941 123.761 85.3697 122.723 82.9459 120.299C82.8305 113.604 83.523 106.91 85.2543 100.331C86.2931 96.1757 87.5627 92.2514 89.2941 88.4425C90.5637 85.5569 91.9488 82.6714 93.4492 80.0167C93.5647 79.7859 93.6801 79.555 93.7955 79.3242C96.1039 75.2844 98.6432 71.4755 101.413 67.782C101.875 67.3203 102.337 66.8586 102.914 66.5124C104.068 65.4736 105.107 64.5502 106.261 63.5114C106.376 63.5114 106.376 63.396 106.492 63.2806C108.339 61.6647 110.07 60.1642 111.917 58.6637C114.802 56.3553 117.572 53.9314 120.573 51.623C120.689 51.5076 120.804 51.5076 120.92 51.3922C123.459 49.43 125.883 47.4678 128.422 45.5057C129.692 44.5823 130.961 43.5435 132.231 42.6201C133.039 42.7355 133.731 42.851 134.424 43.0818C137.54 44.1206 138.002 47.0061 140.195 48.9683C143.081 51.623 145.735 47.237 150.121 47.3524C163.626 47.8141 158.316 61.5493 164.895 59.8179C193.289 52.3155 188.441 88.5579 176.206 96.522C183.132 102.755 189.365 106.795 187.979 116.144Z" fill="black"/>
<path d="M126.921 150.655C153.312 150.655 174.706 129.519 174.706 103.447C174.706 77.3752 153.312 56.2397 126.921 56.2397C100.531 56.2397 79.137 77.3752 79.137 103.447C79.137 129.519 100.531 150.655 126.921 150.655Z" fill="white" stroke="#263238" stroke-width="1.15422" stroke-miterlimit="10"/>
<path d="M126.921 144.537C151.017 144.537 170.551 125.262 170.551 101.485C170.551 77.7078 151.017 58.4326 126.921 58.4326C102.826 58.4326 83.2921 77.7078 83.2921 101.485C83.2921 125.262 102.826 144.537 126.921 144.537Z" fill="#263238" stroke="white" stroke-width="1.15422" stroke-miterlimit="10"/>
<path d="M80.0604 118.452C77.2902 120.183 76.4823 125.954 78.6753 128.378C80.8683 130.802 85.0235 128.955 85.8314 125.031C86.1777 126.07 87.5628 126.301 88.1399 125.377C88.6016 124.685 88.6016 123.646 88.2553 122.953C88.0244 122.722 88.1399 122.607 88.2553 122.953C89.6404 124.108 92.0642 122.838 92.4105 120.414C91.3717 126.762 97.1428 132.303 101.413 129.071C100.144 131.725 101.76 135.303 103.953 135.996C106.146 136.689 108.454 135.419 110.647 133.918C112.725 132.533 114.918 130.802 117.226 130.687C119.188 130.571 121.035 131.725 122.997 132.418C129.115 134.496 136.155 131.725 140.772 125.377C143.888 130.571 151.391 128.724 153.468 122.145C153.93 125.262 156.008 127.57 158.316 127.57C160.625 127.57 163.048 125.377 163.856 122.261C163.856 125.146 166.511 126.531 168.358 124.685C170.666 122.261 172.167 117.99 171.013 114.412C174.129 114.297 177.245 110.603 177.707 106.448C178.169 102.177 176.091 98.0223 172.975 97.0989C178.169 94.9059 182.208 87.8652 182.439 80.5937C182.67 73.3221 178.861 66.6276 173.783 64.8963C171.821 64.2038 169.512 64.4346 167.896 66.166C167.319 62.0108 165.472 58.3173 162.702 56.4705C158.316 53.4696 152.199 55.5472 148.967 61.0874C150.583 58.2019 150.698 54.1621 149.198 51.392C147.697 48.7373 144.812 47.5831 142.388 48.8527C141.811 44.4667 138.464 41.2349 135.116 42.1583C131.769 42.9662 129.115 47.6985 129.345 52.2C128.999 48.6219 124.729 47.6985 123.228 50.6995C123.343 50.9303 123.113 50.8149 123.228 50.6995C121.15 46.198 116.764 44.005 112.84 45.2747C108.569 46.6597 104.991 51.9691 104.414 57.8556C101.529 55.2009 97.1428 55.3163 94.0264 58.0865C90.91 60.972 89.0632 66.2814 89.6404 71.1291C86.2931 67.8973 80.7529 69.6286 78.4445 74.7072C76.136 79.7857 77.7519 86.9418 81.5608 89.0194C78.9061 89.3657 76.5977 92.9438 76.5977 96.5218C76.5977 100.1 78.9061 103.101 81.5608 102.985C78.9061 103.216 76.3669 106.333 76.0206 110.026C75.7898 114.066 77.5211 117.759 80.0604 118.452Z" fill="#92E3A9"/>
<g opacity="0.2">
<g opacity="0.2">
<path opacity="0.2" d="M124.036 101.947C122.651 100.792 121.035 100.331 119.419 100.792C117.803 101.254 116.303 102.985 115.956 105.063C115.61 107.141 116.534 109.449 118.149 109.795C120.112 110.257 122.074 108.064 124.036 108.295C124.728 108.41 125.421 108.757 126.113 108.987C128.999 109.795 131.885 107.256 134.308 104.832C135.116 104.024 136.04 103.101 136.617 101.947C137.194 100.792 137.425 99.292 136.963 98.1377C136.271 96.6373 134.539 96.4064 133.039 96.7527C130.153 97.3298 127.268 99.0611 124.959 101.485C125.075 100.908 125.075 100.331 125.19 99.7536L124.036 101.947Z" fill="white"/>
</g>
<g opacity="0.2">
<path opacity="0.2" d="M165.819 96.2914C165.011 95.5989 164.318 95.0218 163.395 94.7909C162.471 94.5601 161.432 94.9064 160.74 95.8297C159.932 97.2148 160.394 99.177 161.432 100.216C162.471 101.139 163.741 101.37 165.011 101.601C166.28 101.832 168.012 101.716 168.704 100.216C169.166 99.0615 168.819 97.6765 168.127 96.8685C167.434 96.0606 166.511 95.7143 165.588 95.368L165.819 96.2914Z" fill="white"/>
</g>
<g opacity="0.2">
<path opacity="0.2" d="M100.49 72.6296C97.8353 74.2455 95.7577 77.4773 95.0652 81.0553C94.8343 82.0941 94.8343 83.4792 95.6423 84.0563C96.104 84.4026 96.7965 84.1717 97.489 84.0563C100.028 83.1329 102.568 82.2096 105.107 81.2862C103.837 81.9787 102.568 82.6712 101.644 83.8255C100.605 84.9797 99.9129 86.711 100.259 88.3269C100.605 90.1736 102.221 91.2124 103.722 91.097C105.222 90.9816 106.723 89.9428 107.992 88.6732C109.377 87.4035 110.647 85.6722 110.763 83.4792C110.878 81.4016 108.8 79.5549 107.531 81.0553C110.416 79.9011 113.302 78.0544 115.841 75.8614C116.764 75.0534 117.688 74.13 118.265 72.8604C118.842 71.5908 119.073 70.0903 118.611 68.9361C116.072 63.0496 112.609 72.1679 110.993 72.9758C107.762 74.7072 104.414 70.4366 100.49 72.6296Z" fill="white"/>
<path opacity="0.2" d="M88.1398 99.1767C87.7936 100.331 88.0244 101.831 88.7169 102.524C89.4095 103.216 90.7945 102.87 91.1408 101.716C89.4095 102.524 87.5627 103.332 86.5239 105.294C85.4851 107.141 85.6006 110.373 87.3319 110.95C88.3707 111.296 89.5249 110.603 90.5637 109.911C93.3338 107.833 95.9885 105.409 98.5278 102.87C97.7198 105.179 99.4511 107.602 101.413 107.602C103.26 107.718 105.107 106.333 106.723 104.948C108.8 103.332 111.109 100.793 110.647 97.907C110.185 95.3678 107.761 94.4444 105.799 95.2523C103.837 96.0603 102.337 98.2533 100.952 100.215C102.106 98.1379 100.605 95.2523 98.7586 95.1369C96.9119 94.9061 95.0651 96.4065 93.9109 98.2533C96.1039 96.6374 96.5656 92.713 93.7955 92.4822C91.8333 92.1359 88.7169 97.2145 88.1398 99.1767Z" fill="white"/>
<path opacity="0.2" d="M146.543 86.942C144.927 86.2495 142.965 87.75 142.503 89.8275C142.042 91.9051 143.196 94.329 144.927 94.5598C143.658 94.7907 142.503 95.5986 141.695 96.8682C141.234 97.5608 140.888 98.4842 141.003 99.2921C141.118 100.562 142.157 101.37 143.196 101.37C144.235 101.37 145.274 100.677 146.197 100.1C145.158 100.331 144.119 100.446 143.311 101.37C142.503 102.178 142.157 103.909 142.85 104.832C143.427 105.525 144.466 105.409 145.274 105.063C147.12 104.255 148.852 102.986 150.352 101.139C151.391 102.524 152.891 103.563 154.507 103.101C156.123 102.639 157.393 100.446 156.931 98.5996C156.585 97.2145 155.546 96.522 154.392 96.4066C153.238 96.2911 152.199 96.7528 151.045 97.2145C152.199 96.1757 153.353 95.0215 153.815 93.2902C154.276 91.6743 153.468 89.4813 152.083 89.7121C150.583 89.943 149.775 92.5976 148.505 93.6364C146.889 92.136 149.66 88.2116 146.543 86.942Z" fill="white"/>
<g opacity="0.2">
<path opacity="0.2" d="M119.534 80.5937C117.803 82.2096 117.111 85.0952 117.226 87.7499C117.341 90.6354 118.265 93.7518 120.342 94.7906C123.113 96.1756 126.575 93.0593 127.152 89.2503C127.729 85.4414 125.883 81.7479 123.228 80.132C123.113 80.0166 121.266 78.9778 119.534 80.5937Z" fill="white"/>
</g>
<g opacity="0.2">
<path opacity="0.2" d="M138.81 76.323C139.041 76.5538 139.272 76.7847 139.502 77.0155C138.348 75.1688 135.924 75.0534 134.539 76.7847C133.154 78.516 133.039 81.6324 134.424 83.2483C135.809 84.7488 138.233 84.4025 139.502 82.4403C141.465 83.4791 144.119 82.902 145.504 80.5936C146.889 78.4006 146.659 74.5917 144.812 73.322C142.965 72.0524 139.964 74.3608 140.195 77.131C139.964 76.7847 139.618 76.4384 139.387 75.9767L138.81 76.323Z" fill="white"/>
</g>
<g opacity="0.2">
<path opacity="0.2" d="M159.932 79.324C158.547 81.1708 157.047 83.0175 156.585 85.4414C156.008 87.8652 156.816 90.7508 158.662 91.2125C160.509 91.6741 162.241 89.5966 163.395 87.519C164.318 85.6722 165.126 83.3638 164.664 81.2862C164.203 79.2086 161.894 78.1698 160.625 79.7857L159.932 79.324Z" fill="white"/>
</g>
<path opacity="0.2" d="M129.576 66.9741C128.884 65.0119 126.691 64.4348 125.306 65.7044C123.805 66.9741 123.228 69.5134 123.805 71.4755C124.382 73.4377 125.998 74.7073 127.614 74.8228C129.692 74.9382 132.231 72.6297 131.769 70.0905C132.693 71.591 134.193 72.0526 135.694 71.8218C137.194 71.591 138.579 70.5522 139.849 69.6288C141.58 68.2437 143.542 66.1661 143.427 63.6269C143.311 61.5493 141.811 60.1642 140.195 60.0488C138.579 59.9334 136.963 60.9722 135.694 62.3572C134.655 63.5114 133.847 64.7811 132.808 65.8199C131.769 66.8587 130.269 67.4358 129.23 66.6278L129.576 66.9741Z" fill="white"/>
</g>
</g>
<path d="M28.5996 204V186.084H34.875C37.0488 186.084 38.6977 186.503 39.8215 187.339C40.9453 188.168 41.5072 189.386 41.5072 190.994C41.5072 191.872 41.2816 192.647 40.8305 193.32C40.3793 193.984 39.7518 194.472 38.9479 194.784C39.8666 195.013 40.5885 195.477 41.1135 196.174C41.6467 196.871 41.9133 197.725 41.9133 198.734C41.9133 200.456 41.3637 201.761 40.2645 202.646C39.1652 203.532 37.5984 203.984 35.5641 204H28.5996ZM32.291 196.199V201.035H35.4533C36.3229 201.035 36.9996 200.829 37.4836 200.419C37.9758 200.001 38.2219 199.427 38.2219 198.697C38.2219 197.056 37.3729 196.223 35.6748 196.199H32.291ZM32.291 193.59H35.0227C36.8848 193.557 37.8158 192.815 37.8158 191.363C37.8158 190.551 37.5779 189.969 37.1021 189.616C36.6346 189.255 35.8922 189.074 34.875 189.074H32.291V193.59ZM48.2625 194.587H50.8096C51.958 194.587 52.967 194.78 53.8365 195.165C54.7061 195.551 55.3705 196.104 55.8299 196.826C56.2975 197.54 56.5313 198.373 56.5313 199.324C56.5313 200.727 56.0104 201.859 54.9686 202.72C53.935 203.573 52.524 204 50.7357 204H44.6941V190.686H48.2625V194.587ZM62.1914 204H58.6354V190.686H62.1914V204ZM48.2625 197.442V201.158H50.785C51.4904 201.158 52.0318 200.994 52.4092 200.665C52.7865 200.337 52.9752 199.89 52.9752 199.324C52.9752 198.75 52.7906 198.295 52.4215 197.958C52.0523 197.614 51.5068 197.442 50.785 197.442H48.2625ZM71.9367 191.425C73.643 191.425 75.0047 191.991 76.0219 193.123C77.0391 194.255 77.5477 195.793 77.5477 197.737V197.909C77.5477 199.829 76.9816 201.367 75.8496 202.523C74.7176 203.68 73.1959 204.258 71.2846 204.258C69.365 204.258 67.8352 203.635 66.6949 202.388C65.5629 201.133 64.9969 199.431 64.9969 197.282V196.691C65.0133 193.697 65.5178 191.355 66.5104 189.665C67.5111 187.967 69.0123 186.896 71.0139 186.454C72.0639 186.224 72.7406 185.998 73.0441 185.777C73.3477 185.547 73.4994 185.231 73.4994 184.829H76.3787C76.3787 186.117 76.0301 187.085 75.3328 187.733C74.6438 188.381 73.4133 188.882 71.6414 189.234C70.5914 189.448 69.7629 189.862 69.1559 190.477C68.5488 191.092 68.1387 191.958 67.9254 193.073C69.0574 191.974 70.3945 191.425 71.9367 191.425ZM71.26 194.304C70.415 194.304 69.7506 194.587 69.2666 195.153C68.7908 195.719 68.5529 196.638 68.5529 197.909C68.5529 199.041 68.7867 199.907 69.2543 200.505C69.7219 201.096 70.3986 201.391 71.2846 201.391C72.1459 201.391 72.8104 201.1 73.2779 200.518C73.7455 199.935 73.9834 199.078 73.9916 197.946V197.651C73.9916 196.56 73.7496 195.731 73.2656 195.165C72.7898 194.591 72.1213 194.304 71.26 194.304ZM85.8041 204.246C83.8518 204.246 82.2604 203.647 81.0299 202.45C79.8076 201.252 79.1965 199.656 79.1965 197.663V197.319C79.1965 195.981 79.4549 194.788 79.9717 193.738C80.4885 192.68 81.2186 191.868 82.1619 191.302C83.1135 190.727 84.1963 190.44 85.4104 190.44C87.2314 190.44 88.6629 191.014 89.7047 192.163C90.7547 193.311 91.2797 194.94 91.2797 197.048V198.5H82.8018C82.9166 199.369 83.2611 200.067 83.8354 200.592C84.4178 201.117 85.152 201.379 86.0379 201.379C87.4078 201.379 88.4783 200.883 89.2494 199.89L90.9967 201.847C90.4635 202.601 89.7416 203.192 88.8311 203.619C87.9205 204.037 86.9115 204.246 85.8041 204.246ZM85.3981 193.32C84.6926 193.32 84.1184 193.557 83.6754 194.033C83.2406 194.509 82.9617 195.19 82.8387 196.076H87.7852V195.793C87.7688 195.005 87.5555 194.398 87.1453 193.972C86.7352 193.537 86.1527 193.32 85.3981 193.32ZM105.295 197.466C105.295 199.517 104.827 201.162 103.892 202.4C102.965 203.631 101.71 204.246 100.127 204.246C98.7815 204.246 97.6945 203.779 96.866 202.843V209.119H93.31V190.686H96.6076L96.7307 191.991C97.592 190.957 98.7158 190.44 100.102 190.44C101.743 190.44 103.018 191.047 103.929 192.261C104.839 193.475 105.295 195.149 105.295 197.282V197.466ZM101.739 197.208C101.739 195.969 101.517 195.013 101.074 194.341C100.639 193.668 100.004 193.332 99.167 193.332C98.0514 193.332 97.2844 193.758 96.866 194.612V200.062C97.3008 200.94 98.076 201.379 99.1916 201.379C100.89 201.379 101.739 199.989 101.739 197.208ZM115.532 190.686H119.088V204H115.532V195.78L111.078 204H107.51V190.686H111.078V198.894L115.532 190.686ZM132.857 193.541H128.588V204H125.019V193.541H120.823V190.686H132.857V193.541ZM139.994 204.246C138.042 204.246 136.45 203.647 135.22 202.45C133.997 201.252 133.386 199.656 133.386 197.663V197.319C133.386 195.981 133.645 194.788 134.162 193.738C134.678 192.68 135.408 191.868 136.352 191.302C137.303 190.727 138.386 190.44 139.6 190.44C141.421 190.44 142.853 191.014 143.895 192.163C144.945 193.311 145.47 194.94 145.47 197.048V198.5H136.992C137.106 199.369 137.451 200.067 138.025 200.592C138.608 201.117 139.342 201.379 140.228 201.379C141.598 201.379 142.668 200.883 143.439 199.89L145.187 201.847C144.653 202.601 143.931 203.192 143.021 203.619C142.11 204.037 141.101 204.246 139.994 204.246ZM139.588 193.32C138.882 193.32 138.308 193.557 137.865 194.033C137.43 194.509 137.152 195.19 137.029 196.076H141.975V195.793C141.959 195.005 141.745 194.398 141.335 193.972C140.925 193.537 140.343 193.32 139.588 193.32ZM165.76 197.466C165.76 199.517 165.292 201.162 164.357 202.4C163.43 203.631 162.175 204.246 160.592 204.246C159.247 204.246 158.16 203.779 157.331 202.843V209.119H153.775V190.686H157.073L157.196 191.991C158.057 190.957 159.181 190.44 160.567 190.44C162.208 190.44 163.484 191.047 164.394 192.261C165.305 193.475 165.76 195.149 165.76 197.282V197.466ZM162.204 197.208C162.204 195.969 161.982 195.013 161.539 194.341C161.105 193.668 160.469 193.332 159.632 193.332C158.517 193.332 157.75 193.758 157.331 194.612V200.062C157.766 200.94 158.541 201.379 159.657 201.379C161.355 201.379 162.204 199.989 162.204 197.208ZM175.69 204C175.526 203.68 175.407 203.282 175.333 202.806C174.472 203.766 173.352 204.246 171.974 204.246C170.67 204.246 169.587 203.869 168.725 203.114C167.872 202.359 167.446 201.408 167.446 200.259C167.446 198.848 167.967 197.766 169.008 197.011C170.058 196.256 171.572 195.875 173.549 195.867H175.185V195.104C175.185 194.488 175.025 193.996 174.705 193.627C174.394 193.258 173.897 193.073 173.217 193.073C172.618 193.073 172.146 193.217 171.802 193.504C171.465 193.791 171.297 194.185 171.297 194.685H167.741C167.741 193.914 167.979 193.201 168.455 192.544C168.93 191.888 169.603 191.375 170.473 191.006C171.342 190.629 172.318 190.44 173.401 190.44C175.042 190.44 176.342 190.854 177.302 191.683C178.27 192.503 178.754 193.66 178.754 195.153V200.924C178.762 202.187 178.938 203.143 179.283 203.791V204H175.69ZM172.749 201.527C173.274 201.527 173.758 201.412 174.201 201.182C174.644 200.944 174.972 200.629 175.185 200.235V197.946H173.856C172.076 197.946 171.129 198.561 171.014 199.792L171.002 200.001C171.002 200.444 171.158 200.809 171.469 201.096C171.781 201.383 172.208 201.527 172.749 201.527ZM188.474 194.612C188.474 194.144 188.319 193.783 188.007 193.529C187.703 193.266 187.269 193.135 186.703 193.135C186.12 193.135 185.644 193.258 185.275 193.504C184.914 193.742 184.734 194.082 184.734 194.525H181.178C181.178 193.32 181.678 192.339 182.679 191.585C183.68 190.83 184.959 190.453 186.518 190.453C188.232 190.453 189.578 190.789 190.554 191.462C191.538 192.134 192.03 193.09 192.03 194.329C192.03 194.919 191.85 195.465 191.489 195.965C191.136 196.457 190.636 196.851 189.988 197.146C191.505 197.679 192.264 198.709 192.264 200.235C192.264 201.457 191.739 202.433 190.689 203.163C189.647 203.885 188.257 204.246 186.518 204.246C184.902 204.246 183.573 203.869 182.531 203.114C181.489 202.359 180.969 201.342 180.969 200.062H184.525C184.525 200.514 184.726 200.879 185.128 201.158C185.529 201.437 186.054 201.576 186.703 201.576C187.334 201.576 187.826 201.428 188.179 201.133C188.532 200.838 188.708 200.452 188.708 199.976C188.708 199.394 188.54 198.98 188.204 198.734C187.867 198.479 187.363 198.352 186.69 198.352H184.758V196.039H186.813C187.921 196.006 188.474 195.53 188.474 194.612ZM194.614 201.133C195.418 200.28 195.964 199.435 196.251 198.598C196.538 197.762 196.698 196.576 196.731 195.042L196.829 190.686H206.624V201.133H208.543V207.999H204.987V204H197.1V207.999H193.47V201.133H194.614ZM198.81 201.133H203.08V193.627H200.312L200.287 195.227C200.213 197.671 199.721 199.64 198.81 201.133ZM216.48 204.246C214.528 204.246 212.936 203.647 211.706 202.45C210.483 201.252 209.872 199.656 209.872 197.663V197.319C209.872 195.981 210.131 194.788 210.647 193.738C211.164 192.68 211.894 191.868 212.838 191.302C213.789 190.727 214.872 190.44 216.086 190.44C217.907 190.44 219.339 191.014 220.38 192.163C221.43 193.311 221.955 194.94 221.955 197.048V198.5H213.478C213.592 199.369 213.937 200.067 214.511 200.592C215.094 201.117 215.828 201.379 216.714 201.379C218.084 201.379 219.154 200.883 219.925 199.89L221.672 201.847C221.139 202.601 220.417 203.192 219.507 203.619C218.596 204.037 217.587 204.246 216.48 204.246ZM216.074 193.32C215.368 193.32 214.794 193.557 214.351 194.033C213.916 194.509 213.638 195.19 213.514 196.076H218.461V195.793C218.445 195.005 218.231 194.398 217.821 193.972C217.411 193.537 216.829 193.32 216.074 193.32ZM235.564 190.686V204H232.008V193.566H228.871L228.649 197.675C228.51 199.866 228.079 201.461 227.357 202.462C226.635 203.463 225.561 203.975 224.133 204H222.928L222.891 201.108L223.334 201.071C223.973 201.022 224.441 200.645 224.736 199.939C225.032 199.234 225.216 198.032 225.29 196.334L225.536 190.686H235.564Z" fill="#7AB68B"/>
</svg>
