<svg width="20" height="18" viewBox="0 0 20 18" fill="none" xmlns="http://www.w3.org/2000/svg">
<path d="M20 12.4874C20 11.7245 19.5087 11.0802 18.8281 10.8375V4.7674L20 4.28424L10 0.271973L0 4.28424L10 8.29654L17.6562 5.23795V10.8375C16.9757 11.0802 16.4844 11.7245 16.4844 12.4874C16.4844 13.1858 16.8969 13.7853 17.4883 14.0687L16.5147 16.9895L17.6259 17.3603L18.2422 15.5115L18.8584 17.3603L19.9696 16.9895L18.9961 14.0687C19.5875 13.7854 20 13.1858 20 12.4874Z" fill="#333333"/>
<path d="M10 9.55939L4.72656 7.44189V8.97174C4.72656 10.642 6.99363 11.9014 10 11.9014C13.0064 11.9014 15.2734 10.642 15.2734 8.97174V7.44189L10 9.55939Z" fill="#333333"/>
</svg>
