<svg width="19" height="19" viewBox="0 0 19 19" fill="none" xmlns="http://www.w3.org/2000/svg">
<path d="M16.7736 0C16.1786 0 15.6197 0.231414 15.1992 0.6519L14.8056 1.04552L17.9544 4.19436L18.3481 3.80074C18.7686 3.38022 19 2.82135 19 2.22634C19 1.03628 17.9637 0 16.7736 0Z" fill="#333333"/>
<path d="M17.5609 5.37494L14.0185 1.83252L12.4441 3.40692L15.9865 6.94935C16.2036 7.16651 16.2036 7.51938 15.9865 7.73655L11.6569 12.0662L12.4441 12.8534L17.5609 7.73658C17.5611 7.7364 17.5613 7.73621 17.5614 7.73603C18.2133 7.08376 18.213 6.02707 17.5609 5.37494Z" fill="#333333"/>
<path d="M3.019 12.875C1.58568 14.5207 1.39104 16.0945 1.31163 16.7972C1.30573 16.8499 1.30098 16.8766 1.2963 16.9164L0 18.2127L0.787201 18.9999L2.08299 17.7041C3.67565 17.4951 5.01908 16.8998 6.11199 15.968L3.019 12.875Z" fill="#333333"/>
<path d="M11.6568 4.19496L3.78491 12.0669L6.93369 15.2157L14.8056 7.34374L11.6568 4.19496Z" fill="#333333"/>
</svg>
