<svg width="16" height="22" viewBox="0 0 16 22" fill="none" xmlns="http://www.w3.org/2000/svg">
<path d="M7.38458 10.1387V10.7541C7.38458 11.0936 7.66044 11.3694 7.99997 11.3694C8.3395 11.3694 8.61535 11.0936 8.61535 10.7541V10.1387H7.38458Z" fill="#333333"/>
<path d="M8.61535 2.75391H7.38458V8.90775H8.61535V2.75391Z" fill="#333333"/>
<path d="M11.6923 2.75391H9.84613V8.90775H10.4615C11.4795 8.90775 12.3077 8.07961 12.3077 7.0616V2.8161C12.1049 2.78673 11.903 2.75391 11.6923 2.75391Z" fill="#333333"/>
<path d="M4.30765 2.75391C4.09694 2.75391 3.89501 2.78673 3.69226 2.8161V7.0616C3.69226 8.07961 4.5204 8.90775 5.53841 8.90775H6.1538V2.75391H4.30765Z" fill="#333333"/>
<path d="M6.1538 15.0615V16.2923H4.92303V15.0615H3.69226V16.9077C3.69226 17.2472 3.96812 17.5231 4.30765 17.5231H11.6923C12.0318 17.5231 12.3076 17.2472 12.3076 16.9077V15.0615H6.1538Z" fill="#333333"/>
<path d="M11.0769 0.251465V1.52326H11.6923C12.8304 1.52326 13.8884 1.86984 14.7692 2.46082V0.251465H11.0769Z" fill="#333333"/>
<path d="M1.23071 0.251465V2.46082C2.11157 1.86984 3.1695 1.52326 4.30764 1.52326H4.92302V0.251465H1.23071Z" fill="#333333"/>
<path d="M13.5385 3.18604V7.06165C13.5385 8.75818 12.1581 10.1386 10.4615 10.1386H9.84615V10.754C9.84615 11.772 9.01801 12.6001 8 12.6001C6.98199 12.6001 6.15385 11.772 6.15385 10.754V10.1386H5.53846C3.84193 10.1386 2.46154 8.75818 2.46154 7.06165V3.18604C1.01149 3.88023 0 5.34981 0 7.06165V8.9078V16.9078C0 19.2828 1.93268 21.2565 4.30769 21.2565H11.6923C14.0673 21.2565 16 19.2828 16 16.9078V7.06165C16 5.34981 14.9885 3.88023 13.5385 3.18604ZM13.5385 16.9078C13.5385 17.9258 12.7103 18.754 11.6923 18.754H4.30769C3.28968 18.754 2.46154 17.9258 2.46154 16.9078V13.8309H13.5385V16.9078Z" fill="#333333"/>
</svg>
